<svg xmlns="http://www.w3.org/2000/svg" viewBox="0 0 0 0">
  <symbol id="uploadIcon" viewBox="0 -10 72 72">
    <path d="M55.7763 49.1111H44.406H41.3442H40.683V34.4785H45.671C46.9359 34.4785 47.6834 33.0993 46.9359 32.1063L37.2331 19.2252C36.615 18.3977 35.3357 18.3977 34.7176 19.2252L25.0148 32.1063C24.2673 33.0993 25.0004 34.4785 26.2797 34.4785H31.2677V49.1111H30.6065H27.5447H14.3633C6.81665 48.7112 0.808105 41.9396 0.808105 34.6026C0.808105 29.5411 3.66863 25.1279 7.90912 22.742C7.521 21.7352 7.31976 20.6595 7.31976 19.5286C7.31976 14.3568 11.6752 10.178 17.0657 10.178C18.23 10.178 19.3512 10.3711 20.4006 10.7435C23.5198 4.39945 30.2471 0 38.0669 0C48.1865 0.0137914 56.5237 7.44735 57.4724 16.922C65.2491 18.2046 71.157 25.1141 71.157 32.9338C71.157 41.2914 64.3722 48.5319 55.7763 49.1111Z" />
  </symbol>

  <symbol id="errorIcon" viewBox="-80 0 500 400">
    <path d="M355.641 296.125L69.5898 10.0739C57.1143 -2.40159 36.8884 -2.40159 24.4325 10.0739L9.35661 25.1263C-3.11887 37.6057 -3.11887 57.8316 9.35661 70.2876L295.408 356.339C307.887 368.814 328.113 368.814 340.569 356.339L355.621 341.286C368.12 328.83 368.12 308.6 355.641 296.125V296.125Z" />
    <path d="M295.408 10.0739L9.35661 296.125C-3.11887 308.6 -3.11887 328.83 9.35661 341.286L24.4091 356.339C36.8884 368.814 57.1143 368.814 69.5703 356.339L355.641 70.3071C368.12 57.8316 368.12 37.6057 355.641 25.1497L340.588 10.0973C328.113 -2.40158 307.887 -2.40158 295.408 10.0739V10.0739Z" />

  </symbol>
  <symbol id="question">
    <svg version="1.1" id="Capa_1"
      xmlns="http://www.w3.org/2000/svg"
      xmlns:xlink="http://www.w3.org/1999/xlink" x="0px" y="0px" viewBox="0 0 330 330" style="enable-background:new 0 0 330 330;" xml:space="preserve">
      <g>
        <path d="M165,0C74.019,0,0,74.02,0,165.001C0,255.982,74.019,330,165,330s165-74.018,165-164.999C330,74.02,255.981,0,165,0z
		 M165,300c-74.44,0-135-60.56-135-134.999C30,90.562,90.56,30,165,30s135,60.562,135,135.001C300,239.44,239.439,300,165,300z"/>
        <path d="M164.998,70c-11.026,0-19.996,8.976-19.996,20.009c0,11.023,8.97,19.991,19.996,19.991
		c11.026,0,19.996-8.968,19.996-19.991C184.994,78.976,176.024,70,164.998,70z"/>
        <path d="M165,140c-8.284,0-15,6.716-15,15v90c0,8.284,6.716,15,15,15c8.284,0,15-6.716,15-15v-90C180,146.716,173.284,140,165,140z
		"/>
      </g>
    </svg>
  </symbol>

  <symbol id="plus">
    <svg width="57" height="59" viewBox="0 0 57 59" fill="none"
      xmlns="http://www.w3.org/2000/svg">
      <path d="M57 31.6438H30.8371V59H26.1022V31.6438H0V27.2354H26.1022V0H30.8371V27.2354H57V31.6438Z" fill="#E9E9E9"/>
    </svg>
  </symbol>

  <symbol id="play">
    <svg width="39" height="39" viewBox="0 0 39 39" fill="none"
      xmlns="http://www.w3.org/2000/svg">
      <path d="M19.2874 9.62433L6.86563 1.31269C6.30502 0.938014 5.57797 0.896913 4.97732 1.20635C4.3757 1.51705 4 2.1268 4 2.79039V19.2094C4 19.8759 4.37776 20.4869 4.98266 20.7954C5.58634 21.1049 6.31456 21.0605 6.87516 20.6808L19.2959 12.2618C19.7383 11.9615 20.0021 11.4672 20 10.941C19.9988 10.4138 19.7319 9.92156 19.2874 9.62433Z" fill="#3A71CD"/>
    </svg>
  </symbol>

  <symbol id="pause">
    <svg width="39" height="39" viewBox="0 0 39 39" fill="none"
      xmlns="http://www.w3.org/2000/svg">
      <path d="M14.361 0H18.8301C19.1081 0 19.3336 0.251947 19.3336 0.562691V22.4373C19.3336 22.7481 19.1081 23 18.8301 23H14.361C14.0829 23 13.8574 22.7481 13.8574 22.4373V0.562691C13.8574 0.251947 14.0829 0 14.361 0Z" fill="#3A71CD"/>
      <path d="M4.50356 0H8.97263C9.25072 0 9.47619 0.251947 9.47619 0.562691V22.4373C9.47619 22.7481 9.25072 23 8.97263 23H4.50356C4.22547 23 4 22.7481 4 22.4373V0.562691C4 0.251947 4.22547 0 4.50356 0Z" fill="#3A71CD"/>
    </svg>
  </symbol>

  <symbol id="skip">
    <svg fill="none"
      xmlns="http://www.w3.org/2000/svg">
      <path d="M18.4598 0H22.5402C22.7941 0 23 0.230039 23 0.513761V20.4862C23 20.77 22.7941 21 22.5402 21H18.4598C18.2059 21 18 20.77 18 20.4862V0.513761C18 0.230039 18.2059 0 18.4598 0Z" fill="#3A71CD"/>
      <path d="M15.2874 9.62433L2.86563 1.31269C2.30502 0.938014 1.57797 0.896913 0.977315 1.20635C0.3757 1.51705 0 2.1268 0 2.79039V19.2094C0 19.8759 0.377758 20.4869 0.982665 20.7954C1.58634 21.1049 2.31456 21.0605 2.87516 20.6808L15.2959 12.2618C15.7383 11.9615 16.0021 11.4672 16 10.941C15.9988 10.4138 15.7319 9.92156 15.2874 9.62433Z" fill="#3A71CD"/>
    </svg>

  </symbol>


</svg>
