<svg xmlns="http://www.w3.org/2000/svg" viewBox="0 0 0 0">
  <symbol id="uploadIcon" viewBox="0 -10 72 72">
    <path d="M55.7763 49.1111H44.406H41.3442H40.683V34.4785H45.671C46.9359 34.4785 47.6834 33.0993 46.9359 32.1063L37.2331 19.2252C36.615 18.3977 35.3357 18.3977 34.7176 19.2252L25.0148 32.1063C24.2673 33.0993 25.0004 34.4785 26.2797 34.4785H31.2677V49.1111H30.6065H27.5447H14.3633C6.81665 48.7112 0.808105 41.9396 0.808105 34.6026C0.808105 29.5411 3.66863 25.1279 7.90912 22.742C7.521 21.7352 7.31976 20.6595 7.31976 19.5286C7.31976 14.3568 11.6752 10.178 17.0657 10.178C18.23 10.178 19.3512 10.3711 20.4006 10.7435C23.5198 4.39945 30.2471 0 38.0669 0C48.1865 0.0137914 56.5237 7.44735 57.4724 16.922C65.2491 18.2046 71.157 25.1141 71.157 32.9338C71.157 41.2914 64.3722 48.5319 55.7763 49.1111Z" />
  </symbol>

  <symbol id="errorIcon" viewBox="-80 0 500 400">
    <path d="M355.641 296.125L69.5898 10.0739C57.1143 -2.40159 36.8884 -2.40159 24.4325 10.0739L9.35661 25.1263C-3.11887 37.6057 -3.11887 57.8316 9.35661 70.2876L295.408 356.339C307.887 368.814 328.113 368.814 340.569 356.339L355.621 341.286C368.12 328.83 368.12 308.6 355.641 296.125V296.125Z" />
    <path d="M295.408 10.0739L9.35661 296.125C-3.11887 308.6 -3.11887 328.83 9.35661 341.286L24.4091 356.339C36.8884 368.814 57.1143 368.814 69.5703 356.339L355.641 70.3071C368.12 57.8316 368.12 37.6057 355.641 25.1497L340.588 10.0973C328.113 -2.40158 307.887 -2.40158 295.408 10.0739V10.0739Z" />

  </symbol>
  <symbol id="question">
    <svg version="1.1" id="Capa_1"
      xmlns="http://www.w3.org/2000/svg"
      xmlns:xlink="http://www.w3.org/1999/xlink" x="0px" y="0px" viewBox="0 0 330 330" style="enable-background:new 0 0 330 330;" xml:space="preserve">
      <g>
        <path d="M165,0C74.019,0,0,74.02,0,165.001C0,255.982,74.019,330,165,330s165-74.018,165-164.999C330,74.02,255.981,0,165,0z
		 M165,300c-74.44,0-135-60.56-135-134.999C30,90.562,90.56,30,165,30s135,60.562,135,135.001C300,239.44,239.439,300,165,300z"/>
        <path d="M164.998,70c-11.026,0-19.996,8.976-19.996,20.009c0,11.023,8.97,19.991,19.996,19.991
		c11.026,0,19.996-8.968,19.996-19.991C184.994,78.976,176.024,70,164.998,70z"/>
        <path d="M165,140c-8.284,0-15,6.716-15,15v90c0,8.284,6.716,15,15,15c8.284,0,15-6.716,15-15v-90C180,146.716,173.284,140,165,140z
		"/>
      </g>
    </svg>
  </symbol>  
</svg>
