<svg xmlns="http://www.w3.org/2000/svg" viewBox="0 0 0 0">
  <symbol id="uploadIcon" viewBox="0 -10 72 72">
    <path d="M55.7763 49.1111H44.406H41.3442H40.683V34.4785H45.671C46.9359 34.4785 47.6834 33.0993 46.9359 32.1063L37.2331 19.2252C36.615 18.3977 35.3357 18.3977 34.7176 19.2252L25.0148 32.1063C24.2673 33.0993 25.0004 34.4785 26.2797 34.4785H31.2677V49.1111H30.6065H27.5447H14.3633C6.81665 48.7112 0.808105 41.9396 0.808105 34.6026C0.808105 29.5411 3.66863 25.1279 7.90912 22.742C7.521 21.7352 7.31976 20.6595 7.31976 19.5286C7.31976 14.3568 11.6752 10.178 17.0657 10.178C18.23 10.178 19.3512 10.3711 20.4006 10.7435C23.5198 4.39945 30.2471 0 38.0669 0C48.1865 0.0137914 56.5237 7.44735 57.4724 16.922C65.2491 18.2046 71.157 25.1141 71.157 32.9338C71.157 41.2914 64.3722 48.5319 55.7763 49.1111Z" />
  </symbol>

  <symbol id="errorIcon" viewBox="-80 0 500 400">
    <path d="M355.641 296.125L69.5898 10.0739C57.1143 -2.40159 36.8884 -2.40159 24.4325 10.0739L9.35661 25.1263C-3.11887 37.6057 -3.11887 57.8316 9.35661 70.2876L295.408 356.339C307.887 368.814 328.113 368.814 340.569 356.339L355.621 341.286C368.12 328.83 368.12 308.6 355.641 296.125V296.125Z" />
    <path d="M295.408 10.0739L9.35661 296.125C-3.11887 308.6 -3.11887 328.83 9.35661 341.286L24.4091 356.339C36.8884 368.814 57.1143 368.814 69.5703 356.339L355.641 70.3071C368.12 57.8316 368.12 37.6057 355.641 25.1497L340.588 10.0973C328.113 -2.40158 307.887 -2.40158 295.408 10.0739V10.0739Z" />

  </symbol>

  <symbol id="question">
    <path d="M10.5 16.5498C11.0663 16.5498 11.5254 16.0907 11.5254 15.5244C11.5254 14.9581 11.0663 14.499 10.5 14.499C9.93369 14.499 9.47461 14.9581 9.47461 15.5244C9.47461 16.0907 9.93369 16.5498 10.5 16.5498Z"/>
    <path d="M10.5 0C4.69695 0 0 4.69617 0 10.5C0 16.3031 4.69617 21 10.5 21C16.3031 21 21 16.3038 21 10.5C21 4.69695 16.3038 0 10.5 0ZM10.5 19.3594C5.60368 19.3594 1.64062 15.397 1.64062 10.5C1.64062 5.60368 5.60302 1.64062 10.5 1.64062C15.3963 1.64062 19.3594 5.60302 19.3594 10.5C19.3594 15.3963 15.397 19.3594 10.5 19.3594Z" />
    <path d="M10.5 5.27051C8.69072 5.27051 7.21875 6.74248 7.21875 8.55176C7.21875 9.00482 7.586 9.37207 8.03906 9.37207C8.49212 9.37207 8.85938 9.00482 8.85938 8.55176C8.85938 7.64712 9.59536 6.91113 10.5 6.91113C11.4046 6.91113 12.1406 7.64712 12.1406 8.55176C12.1406 9.4564 11.4046 10.1924 10.5 10.1924C10.0469 10.1924 9.67969 10.5596 9.67969 11.0127V13.0635C9.67969 13.5165 10.0469 13.8838 10.5 13.8838C10.9531 13.8838 11.3203 13.5165 11.3203 13.0635V11.7292C12.734 11.364 13.7812 10.0779 13.7812 8.55176C13.7812 6.74248 12.3093 5.27051 10.5 5.27051Z" />

  </symbol>


</svg>
